<svg width="171" height="60" viewBox="0 0 171 60" fill="none" xmlns="http://www.w3.org/2000/svg">
<path d="M21.9375 0C22.2708 0 22.5938 0.177083 22.9062 0.53125C23.1771 0.84375 23.3125 1.1875 23.3125 1.5625C23.3125 2.08333 23.0312 2.79167 22.4688 3.6875C22.1979 4.125 21.1771 5.57292 19.4062 8.03125C11.1146 19.4479 5.78125 29.75 3.40625 38.9375C3.13542 40.4167 2.57292 41.1562 1.71875 41.1562C1.26042 41.1562 0.854167 40.9375 0.5 40.5C0.166667 40.1042 0 39.6562 0 39.1562C0 38.1146 0.5 36.1875 1.5 33.375C3.79167 26.875 7.89583 19.1042 13.8125 10.0625C16.2292 6.35417 18.1979 3.57292 19.7188 1.71875C20.6979 0.572917 21.4375 0 21.9375 0ZM18.5312 29.125C18.8021 28.875 19.0625 28.625 19.3125 28.375C23.6667 24.125 26.5833 22 28.0625 22C28.875 22 29.2812 22.4479 29.2812 23.3438C29.2812 23.9688 28.9167 24.7083 28.1875 25.5625C24.2083 30.2083 22.2188 34.3021 22.2188 37.8438C22.2188 38.9896 22.5312 40.0833 23.1562 41.125C23.4479 41.6042 23.5938 41.9792 23.5938 42.25C23.5938 42.5 23.4688 42.7396 23.2188 42.9688C22.9479 43.2604 22.625 43.4062 22.25 43.4062C21.3958 43.4062 20.6771 42.8646 20.0938 41.7812C19.5312 40.7604 19.25 39.5208 19.25 38.0625C19.25 35.25 20.3125 32.1354 22.4375 28.7188C19.6042 30.5312 16.9688 33.7396 14.5312 38.3438C13.9062 39.4479 13.2396 40 12.5312 40C12.1771 40 11.8854 39.875 11.6562 39.625C11.3646 39.3333 11.2188 38.9583 11.2188 38.5C11.2188 37.375 12.5 34.4271 15.0625 29.6562C16.4375 27.0729 17.5208 25.1979 18.3125 24.0312C19.1042 22.8854 19.7812 22.3125 20.3438 22.3125C20.6146 22.3125 20.875 22.4375 21.125 22.6875C21.4167 22.9792 21.5625 23.3125 21.5625 23.6875C21.5625 24.1458 21.2604 24.8021 20.6562 25.6562C19.7812 26.9271 19.0729 28.0833 18.5312 29.125ZM34.4062 25.0938C37.5938 18.2188 40.7083 12.625 43.75 8.3125C45.8125 5.39583 47.5208 3.27083 48.875 1.9375C49.8125 1 50.6146 0.53125 51.2812 0.53125C51.5312 0.53125 51.75 0.614583 51.9375 0.78125C52.2292 0.989583 52.375 1.27083 52.375 1.625C52.375 2.08333 52.0104 2.73958 51.2812 3.59375C46.6771 8.84375 42.5104 15.1354 38.7812 22.4688C42.1146 21.1979 44.4375 20.5625 45.75 20.5625C46.7083 20.5625 47.5 20.8021 48.125 21.2812C48.7708 21.7812 49.0938 22.3542 49.0938 23C49.0938 23.3333 48.9792 23.6354 48.75 23.9062C48.4375 24.3021 48.0312 24.5 47.5312 24.5C47.1771 24.5 46.4792 24.2083 45.4375 23.625C45.1458 23.4792 44.7708 23.4062 44.3125 23.4062C42.2292 23.4062 39.7292 24.3542 36.8125 26.25C38.0625 26.8333 38.9479 27.6042 39.4688 28.5625C40.1771 29.9167 40.5312 31.5833 40.5312 33.5625C40.5312 38.6667 39.0104 44.0521 35.9688 49.7188C34.6562 52.1354 33.3854 53.9688 32.1562 55.2188C30.8438 56.5729 29.5 57.25 28.125 57.25C27.0833 57.25 26.2396 56.75 25.5938 55.75C25.0729 54.9167 24.8125 53.7812 24.8125 52.3438C24.8125 49.2604 25.9792 44.625 28.3125 38.4375C28.6042 37.6875 29.4375 35.7604 30.8125 32.6562C31.1667 31.8854 31.5104 31.0625 31.8438 30.1875C31.6771 30.2292 31.5208 30.25 31.375 30.25C30.8125 30.25 30.5312 29.9375 30.5312 29.3125C30.5312 28.2083 31.8229 26.8021 34.4062 25.0938ZM35.4688 29.1875C34.3021 31.3958 32.7604 34.9583 30.8438 39.875C28.8646 44.8958 27.875 48.7917 27.875 51.5625C27.875 52.1042 28.0104 52.5833 28.2812 53C28.5729 53.4167 28.9167 53.625 29.3125 53.625C30.6042 53.625 32.3021 51.4583 34.4062 47.125C36.7812 42.2917 37.9688 37.8646 37.9688 33.8438C37.9688 32.2812 37.6667 31.1042 37.0625 30.3125C36.8333 30 36.3021 29.625 35.4688 29.1875ZM53.8125 21.125C54.1667 21.125 54.4583 21.2604 54.6875 21.5312C54.8542 21.7604 54.9375 21.9896 54.9375 22.2188C54.9375 22.5938 54.6354 23.2188 54.0312 24.0938C51.8646 27.4479 50.3229 30.2083 49.4062 32.375C48.4271 34.6042 47.5625 36.8958 46.8125 39.25C46.4792 40.2917 45.9583 40.8125 45.25 40.8125C44.8333 40.8125 44.5 40.6458 44.25 40.3125C44.0208 40.0417 43.9062 39.75 43.9062 39.4375C43.9062 38.8125 44.5729 36.7292 45.9062 33.1875C46.9479 30.3958 48.6354 27.3125 50.9688 23.9375C51.7188 22.8333 52.2812 22.0938 52.6562 21.7188C53.0312 21.3229 53.4167 21.125 53.8125 21.125ZM59.75 9.53125C60.6875 9.53125 61.1562 10.0104 61.1562 10.9688C61.1562 11.8438 60.6979 12.8125 59.7812 13.875C58.9062 14.8958 58.0625 15.4062 57.25 15.4062C56.8542 15.4062 56.5312 15.2604 56.2812 14.9688C56.0312 14.6979 55.9062 14.3646 55.9062 13.9688C55.9062 12.9688 56.4583 11.9062 57.5625 10.7812C58.375 9.94792 59.1042 9.53125 59.75 9.53125ZM59.8438 29.125C60.1146 28.875 60.375 28.625 60.625 28.375C64.9792 24.125 67.8958 22 69.375 22C70.1875 22 70.5938 22.4479 70.5938 23.3438C70.5938 23.9688 70.2292 24.7083 69.5 25.5625C65.5208 30.2083 63.5312 34.3021 63.5312 37.8438C63.5312 38.9896 63.8438 40.0833 64.4688 41.125C64.7604 41.6042 64.9062 41.9792 64.9062 42.25C64.9062 42.5 64.7812 42.7396 64.5312 42.9688C64.2604 43.2604 63.9375 43.4062 63.5625 43.4062C62.7083 43.4062 61.9896 42.8646 61.4062 41.7812C60.8438 40.7604 60.5625 39.5208 60.5625 38.0625C60.5625 35.25 61.625 32.1354 63.75 28.7188C60.9167 30.5312 58.2812 33.7396 55.8438 38.3438C55.2188 39.4479 54.5521 40 53.8438 40C53.4896 40 53.1979 39.875 52.9688 39.625C52.6771 39.3333 52.5312 38.9583 52.5312 38.5C52.5312 37.375 53.8125 34.4271 56.375 29.6562C57.75 27.0729 58.8333 25.1979 59.625 24.0312C60.4167 22.8854 61.0938 22.3125 61.6562 22.3125C61.9271 22.3125 62.1875 22.4375 62.4375 22.6875C62.7292 22.9792 62.875 23.3125 62.875 23.6875C62.875 24.1458 62.5729 24.8021 61.9688 25.6562C61.0938 26.9271 60.3854 28.0833 59.8438 29.125ZM78.75 21.125C79.1042 21.125 79.3958 21.2604 79.625 21.5312C79.7917 21.7604 79.875 21.9896 79.875 22.2188C79.875 22.5938 79.5729 23.2188 78.9688 24.0938C76.8021 27.4479 75.2604 30.2083 74.3438 32.375C73.3646 34.6042 72.5 36.8958 71.75 39.25C71.4167 40.2917 70.8958 40.8125 70.1875 40.8125C69.7708 40.8125 69.4375 40.6458 69.1875 40.3125C68.9583 40.0417 68.8438 39.75 68.8438 39.4375C68.8438 38.8125 69.5104 36.7292 70.8438 33.1875C71.8854 30.3958 73.5729 27.3125 75.9062 23.9375C76.6562 22.8333 77.2188 22.0938 77.5938 21.7188C77.9688 21.3229 78.3542 21.125 78.75 21.125ZM84.6875 9.53125C85.625 9.53125 86.0938 10.0104 86.0938 10.9688C86.0938 11.8438 85.6354 12.8125 84.7188 13.875C83.8438 14.8958 83 15.4062 82.1875 15.4062C81.7917 15.4062 81.4688 15.2604 81.2188 14.9688C80.9688 14.6979 80.8438 14.3646 80.8438 13.9688C80.8438 12.9688 81.3958 11.9062 82.5 10.7812C83.3125 9.94792 84.0417 9.53125 84.6875 9.53125ZM90.4375 19.7188C89.0833 21.8229 87.8333 24.1771 86.6875 26.7812C85.0417 30.4896 84.2188 33.2604 84.2188 35.0938C84.2188 35.6146 84.3229 36.0104 84.5312 36.2812C84.7604 36.5521 85.0938 36.6875 85.5312 36.6875C86.5729 36.6875 87.8333 35.7083 89.3125 33.75C90.25 32.5417 91.0833 31.3333 91.8125 30.125C92.2083 29.4375 92.6354 29.0938 93.0938 29.0938C93.3646 29.0938 93.5938 29.1875 93.7812 29.375C93.9479 29.5625 94.0312 29.75 94.0312 29.9375C94.0312 30.7083 93.0208 32.4271 91 35.0938C88.5833 38.3021 86.375 39.9062 84.375 39.9062C83.3125 39.9062 82.4271 39.4167 81.7188 38.4375C81.2812 37.8125 81.0625 36.9271 81.0625 35.7812C81.0625 33.2604 81.7917 30.3229 83.25 26.9688C83.6042 26.1354 84.5833 24.125 86.1875 20.9375C85.625 21.0833 85.1979 21.1562 84.9062 21.1562C84.4688 21.1562 84.0833 21.0521 83.75 20.8438C83.2917 20.5521 83.0625 20.1875 83.0625 19.75C83.0625 19.2292 83.3646 18.8125 83.9688 18.5C84.1354 18.4167 84.9062 18.2812 86.2812 18.0938C86.7812 18.0104 87.5104 17.8125 88.4688 17.5C89.1979 16.1875 90.3854 14.4062 92.0312 12.1562C92.9479 10.9062 93.5833 10.0938 93.9375 9.71875C94.4375 9.19792 94.875 8.9375 95.25 8.9375C95.5208 8.9375 95.7917 9.08333 96.0625 9.375C96.3125 9.64583 96.4375 9.91667 96.4375 10.1875C96.4375 10.7292 95.8542 11.8021 94.6875 13.4062C93.9167 14.4479 93.3438 15.2917 92.9688 15.9375C95.2812 15.3125 96.9375 15 97.9375 15C99.0833 15 99.6562 15.4792 99.6562 16.4375C99.6562 16.9167 99.4583 17.2708 99.0625 17.5C98.8542 17.625 98.3125 17.7292 97.4375 17.8125C97.0833 17.7917 95.5104 18.1875 92.7188 19C91.9479 19.2292 91.1875 19.4688 90.4375 19.7188ZM97.0625 33.8438V34.4062C97.0625 34.8646 97.1771 35.2604 97.4062 35.5938C97.9271 36.3646 98.7812 36.75 99.9688 36.75C102.573 36.75 105.583 34.75 109 30.75C109.604 30.0625 110.115 29.7188 110.531 29.7188C110.76 29.7188 110.969 29.8333 111.156 30.0625C111.281 30.2292 111.344 30.3854 111.344 30.5312C111.344 31.3438 110.344 32.7188 108.344 34.6562C106.781 36.1771 105.115 37.4167 103.344 38.375C101.573 39.3333 99.9271 39.8125 98.4062 39.8125C96.8438 39.8125 95.6146 39.2708 94.7188 38.1875C94.1146 37.4375 93.8125 36.4167 93.8125 35.125C93.8125 31.6042 95.4688 28.1562 98.7812 24.7812C101.469 22.0312 103.812 20.6562 105.812 20.6562C106.354 20.6562 106.844 20.8229 107.281 21.1562C107.823 21.5938 108.094 22.1667 108.094 22.875C108.094 23.9792 107.583 25.3333 106.562 26.9375C104.458 30.2708 101.292 32.5729 97.0625 33.8438ZM97.75 31.4062C99.2083 30.9062 100.354 30.3438 101.188 29.7188C102.646 28.5938 103.802 27.3229 104.656 25.9062C104.969 25.4062 105.125 24.9583 105.125 24.5625C105.125 24.1458 104.927 23.9375 104.531 23.9375C103.99 23.9375 103.219 24.3438 102.219 25.1562C100.427 26.5938 98.9375 28.6771 97.75 31.4062ZM114.531 36.2188C116.427 35.5729 118.094 35.25 119.531 35.25C121.948 35.25 123.156 35.875 123.156 37.125C123.156 37.5 123.01 37.8438 122.719 38.1562C122.427 38.4688 122.094 38.625 121.719 38.625C121.49 38.625 121 38.5312 120.25 38.3438C119.812 38.2188 119.385 38.1562 118.969 38.1562C117.198 38.1562 115.521 38.5312 113.938 39.2812C112.812 39.8229 112.062 40.0938 111.688 40.0938C111.208 40.0938 110.792 39.9375 110.438 39.625C110.104 39.3333 109.938 39.0104 109.938 38.6562C109.938 37.8021 110.958 36.0833 113 33.5C116.062 29.6875 119.302 26.4375 122.719 23.75C120.448 24.0208 118.896 24.1562 118.062 24.1562C116.062 24.1562 115.062 23.5625 115.062 22.375C115.062 22 115.188 21.6875 115.438 21.4375C115.667 21.2083 115.927 21.0938 116.219 21.0938C116.469 21.0938 117.021 21.1667 117.875 21.3125C118.208 21.375 118.719 21.4062 119.406 21.4062C121.198 21.4062 122.938 21.2083 124.625 20.8125C125.271 20.6667 125.823 20.5938 126.281 20.5938C126.802 20.5938 127.24 20.7812 127.594 21.1562C127.865 21.4271 128 21.7604 128 22.1562C128 22.8438 127.417 23.5938 126.25 24.4062C122.833 27.1146 120.427 29.1875 119.031 30.625C117.052 32.7292 115.552 34.5938 114.531 36.2188ZM139.062 26.4688C137.708 29.8229 137.031 32.375 137.031 34.125C137.031 34.9792 137.198 35.6875 137.531 36.25C137.948 36.9583 138.5 37.3125 139.188 37.3125C140.604 37.3125 142.24 36.3646 144.094 34.4688C145.323 33.2604 146.354 32.0312 147.188 30.7812C147.729 29.9479 148.24 29.5312 148.719 29.5312C149.198 29.5312 149.438 29.7708 149.438 30.25C149.438 31.0417 148.479 32.6667 146.562 35.125C143.729 38.7708 140.979 40.5938 138.312 40.5938C136.708 40.5938 135.573 39.8125 134.906 38.25C134.406 37.1042 134.156 35.8958 134.156 34.625C134.156 33.5625 134.406 31.9896 134.906 29.9062C133.552 31.0312 131.5 33.7812 128.75 38.1562C128.021 39.3438 127.354 39.9375 126.75 39.9375C126.438 39.9375 126.167 39.8021 125.938 39.5312C125.708 39.2396 125.594 38.9479 125.594 38.6562C125.594 37.8229 126.688 35.0417 128.875 30.3125C132.729 22.0417 136.854 15.0833 141.25 9.4375C143.625 6.35417 145.76 4.10417 147.656 2.6875C149.365 1.39583 150.729 0.75 151.75 0.75C152.208 0.75 152.615 0.9375 152.969 1.3125C153.427 1.77083 153.656 2.33333 153.656 3C153.656 4.77083 152.729 7.04167 150.875 9.8125C148.938 12.6667 145.646 16.1146 141 20.1562C138.396 22.4062 136.052 24.1771 133.969 25.4688C133.698 26.0104 132.938 27.5938 131.688 30.2188C134.292 27.4062 136.354 25.4688 137.875 24.4062C138.854 23.7396 140.177 23.0417 141.844 22.3125C142.969 21.8333 143.781 21.5938 144.281 21.5938C144.552 21.5938 144.792 21.6979 145 21.9062C145.229 22.0938 145.344 22.3438 145.344 22.6562C145.344 23.3438 144.875 23.8229 143.938 24.0938C142.354 24.5729 140.729 25.3646 139.062 26.4688ZM136.375 21.0938C139.792 18.8438 142.979 15.9792 145.938 12.5C147.417 10.7708 148.604 9.10417 149.5 7.5C150.125 6.375 150.438 5.57292 150.438 5.09375C150.438 4.61458 150.219 4.375 149.781 4.375C148.615 4.375 146.604 6.16667 143.75 9.75C141.396 12.7292 138.938 16.5104 136.375 21.0938ZM160.219 31.0938C158.365 33.2812 156.885 34.9062 155.781 35.9688C153.594 38.0521 151.771 39.0938 150.312 39.0938C149.604 39.0938 149.042 38.8333 148.625 38.3125C148.312 37.8958 148.156 37.375 148.156 36.75C148.156 34.5 149.49 31.5104 152.156 27.7812C154.865 23.9896 156.823 22.0938 158.031 22.0938C158.365 22.0938 158.656 22.2396 158.906 22.5312C159.135 22.7604 159.25 23.0312 159.25 23.3438C159.25 23.8021 159.125 24.2083 158.875 24.5625C158.646 24.8958 157.969 25.6562 156.844 26.8438C155.656 28.0729 154.562 29.4062 153.562 30.8438C152.417 32.4688 151.844 33.6562 151.844 34.4062C151.844 34.8438 152.052 35.0625 152.469 35.0625C153.302 35.0625 154.865 33.9271 157.156 31.6562C158.594 30.2188 159.719 29.0104 160.531 28.0312C160.698 27.8229 161.427 26.8333 162.719 25.0625C163.885 23.5 164.604 22.5729 164.875 22.2812C165.5 21.5521 166.083 21.1875 166.625 21.1875C166.958 21.1875 167.26 21.3333 167.531 21.625C167.781 21.8958 167.906 22.2083 167.906 22.5625C167.906 23.1667 167.49 24.1771 166.656 25.5938C165.656 27.3229 164.74 28.9375 163.906 30.4375C162.594 32.7708 161.583 34.8542 160.875 36.6875C162.208 35.9167 163.427 34.9688 164.531 33.8438C166.406 31.9688 167.552 30.5729 167.969 29.6562C168.365 28.8229 168.771 28.4062 169.188 28.4062C169.771 28.4062 170.062 28.6979 170.062 29.2812C170.062 30.3854 169.125 32.0312 167.25 34.2188C165 36.8438 162.229 39.0729 158.938 40.9062C157.188 45.1146 155.531 48.6042 153.969 51.375C151.052 56.4792 148.042 59.0312 144.938 59.0312C143.667 59.0312 142.646 58.5417 141.875 57.5625C141.271 56.8125 140.969 55.8646 140.969 54.7188C140.969 51.4688 143.25 48.1458 147.812 44.75C149.146 43.75 151.125 42.5 153.75 41C154.812 40.3958 155.646 39.9062 156.25 39.5312C156.625 38.5729 157.198 37.3021 157.969 35.7188C158.823 34.0104 159.573 32.4688 160.219 31.0938ZM154.469 43.375C152.26 44.5 150 46.1042 147.688 48.1875C145.354 50.3333 144.188 52.3333 144.188 54.1875C144.188 54.5833 144.302 54.9167 144.531 55.1875C144.844 55.5625 145.25 55.75 145.75 55.75C147.312 55.75 149.042 54.1146 150.938 50.8438C151.25 50.3021 152.104 48.5 153.5 45.4375C153.792 44.8125 154.115 44.125 154.469 43.375Z" fill="black"/>
</svg>
